<svg xmlns="http://www.w3.org/2000/svg" width="100.58" height="51.599" viewBox="0 0 100.58 51.599">
  <g id="Groupe_25" data-name="Groupe 25" transform="translate(-7074.42 -5201.25)">
    <g id="Groupe_23" data-name="Groupe 23">
      <path id="Tracé_290" data-name="Tracé 290" d="M7091.913,5232.3h-10.506c-1.291,0-2.05-.1-3.341-.1-1.418,0-2.228.025-3.646.126v-.227a2.151,2.151,0,0,0,1.418-1.013,5.9,5.9,0,0,0,.38-1.974v-13.038a4.275,4.275,0,0,0-.38-1.873,3.969,3.969,0,0,0-.886-1.038v-.228a19.526,19.526,0,0,0,2.734.152,18.527,18.527,0,0,0,2.354-.152v.228a2.391,2.391,0,0,0-.784.81,2.969,2.969,0,0,0-.684,2.025l.329,13.114c.051,1.923.81,2.531,3.873,2.607,3.6.076,8.1-.557,10.025-3.266l.228.026Z" fill="#ebf2ed"/>
      <path id="Tracé_291" data-name="Tracé 291" d="M7108.369,5232.3l-.2-.076c-.1-.025-.379-.405-.557-1.215-.126-.582-.228-1.342-.278-1.544l-.076-.2-.43.583a6.182,6.182,0,0,1-5.291,2.86c-2.608.127-6.152-1.316-6.152-5.24v-7.038a3.007,3.007,0,0,0-.3-1.7,1.457,1.457,0,0,0-.936-.683v-.279c.582-.126.936-.253,1.519-.354a14.34,14.34,0,0,0,1.468-.456l.38.152c-.051.481-.051.759-.076,1.24-.026.3-.026,1.671-.026,1.95l.051,6.531c0,2.608,1.418,5.114,4.455,5.063s5.266-2.076,5.241-6.43v-5.038a4.861,4.861,0,0,0-.178-1.822,1.285,1.285,0,0,0-.936-.785v-.279a4.69,4.69,0,0,0,1.468-.227,4.618,4.618,0,0,0,1.215-.431l.456.127c-.051.481-.051.785-.076,1.291-.025.81-.025,1.266,0,2.126l.2,9.19a5.805,5.805,0,0,0,.659,1.848,3.778,3.778,0,0,0,.557.633v.2Z" fill="#ebf2ed"/>
      <path id="Tracé_292" data-name="Tracé 292" d="M7124.824,5232.2a18.614,18.614,0,0,0-2.051.1v-.2a1.24,1.24,0,0,0,.836-.988c.051-.329-.633-1.24-.734-1.392l-3.519-4.633-2.81,3.469c-.81.987-1.367,2.253-1.19,2.734a1.249,1.249,0,0,0,.785.81v.2c-.836-.05-1.367-.1-2.2-.1-.86,0-1.367.051-2.177.1v-.2a4.109,4.109,0,0,0,1.038-.633,18.873,18.873,0,0,0,1.823-1.747l4.354-5.139-3.316-4.329a17.026,17.026,0,0,0-2.253-2.582,7.385,7.385,0,0,0-.76-.506v-.253a15.952,15.952,0,0,0,2.2.126,14.727,14.727,0,0,0,2.1-.126v.253c-.076.076-.076-.076-.354.455-.431.836.784,2.152.86,2.279l2.684,3.316,2.734-3.266c.1-.126,1.164-1.468.81-2.354-.228-.557-.279-.354-.329-.43v-.253c.557.025.936.05,1.519.05.86,0,1.367,0,2.2-.05v.253a9.748,9.748,0,0,0-1.519,1.088c-.658.608-1.493,1.519-1.645,1.7l-3.291,3.747,5.063,6.025a15.237,15.237,0,0,0,1.417,1.57,13.392,13.392,0,0,0,1.089.81v.2A24.942,24.942,0,0,0,7124.824,5232.2Z" fill="#ebf2ed"/>
      <path id="Tracé_293" data-name="Tracé 293" d="M7143.609,5232.3l-.2-.076c-.1-.025-.38-.405-.557-1.215-.126-.582-.228-1.342-.278-1.544l-.076-.2-.431.583a6.182,6.182,0,0,1-5.291,2.86c-2.607.127-6.151-1.316-6.151-5.24v-7.038a3,3,0,0,0-.3-1.7,1.458,1.458,0,0,0-.937-.683v-.279c.583-.126.937-.253,1.519-.354a14.367,14.367,0,0,0,1.469-.456l.379.152c-.05.481-.05.759-.076,1.24-.025.3-.025,1.671-.025,1.95l.051,6.531c0,2.608,1.417,5.114,4.455,5.063s5.266-2.076,5.24-6.43v-5.038a4.863,4.863,0,0,0-.177-1.822,1.286,1.286,0,0,0-.937-.785v-.279a4.694,4.694,0,0,0,1.469-.227,4.608,4.608,0,0,0,1.215-.431l.456.127c-.051.481-.051.785-.076,1.291-.026.81-.026,1.266,0,2.126l.2,9.19a5.828,5.828,0,0,0,.658,1.848,3.847,3.847,0,0,0,.557.633v.2Z" fill="#ebf2ed"/>
      <path id="Tracé_294" data-name="Tracé 294" d="M7155.558,5219.21l-.279-.228a1.914,1.914,0,0,0-1.671-.379c-1.949.126-2.784,3.949-2.784,5.189l.1,5.317a3.276,3.276,0,0,0,.481,2.05,2.45,2.45,0,0,0,1.215.937v.2a25.967,25.967,0,0,0-2.785-.126,23.839,23.839,0,0,0-2.683.126v-.2a2.641,2.641,0,0,0,1.038-1.013,4.956,4.956,0,0,0,.38-1.974l.1-9.342a1.879,1.879,0,0,0-.532-1.493,1.593,1.593,0,0,0-.785-.481v-.33c.608-.1.962-.227,1.545-.354.557-.152.886-.3,1.443-.481l.329.253a2.4,2.4,0,0,0-.1.709,16.625,16.625,0,0,0-.025,2.962l.279.076.2-.4a7.622,7.622,0,0,1,2.456-2.962,5.221,5.221,0,0,1,2.911-.76Z" fill="#ebf2ed"/>
      <path id="Tracé_295" data-name="Tracé 295" d="M7174.139,5217.919a15.478,15.478,0,0,0-2.126,3.494l-3.114,6.354-2.683,5.316a9.418,9.418,0,0,1-4.3,4.683,5.455,5.455,0,0,1-2.607.557l-.38-.025.962-2.886.278.076a2.185,2.185,0,0,0,1.57.861c2.076-.026,3.544-2.481,3.645-3.671l.076-1.038a33.185,33.185,0,0,0-1.569-3.62c-.38-.734-2.1-4.607-3.722-7.316a27.228,27.228,0,0,0-1.544-2.532,4.01,4.01,0,0,0-1.266-1.012v-.253c1.013.075,1.646.075,2.658.075a22.445,22.445,0,0,0,2.253-.075l.051.253c-.228.152-.43.152-.582.531-.329.734.177,2.127.658,3.013l4.785,8.987,4.4-9.012c.254-.557.785-1.95.228-2.836a1.193,1.193,0,0,0-.911-.683v-.253a18.581,18.581,0,0,0,2.05.075,18.821,18.821,0,0,0,2.051-.075v.253A3.968,3.968,0,0,0,7174.139,5217.919Z" fill="#ebf2ed"/>
      <path id="Tracé_296" data-name="Tracé 296" d="M7106.533,5252.381h-8.9c-.964,0-1.526-.081-2.49-.081-1.144,0-1.827,0-2.952.081v-.161a1.9,1.9,0,0,0,.984-.743c.4-.442.382-2.129.382-2.329v-10.282a2.528,2.528,0,0,0-.422-1.065,2.091,2.091,0,0,0-.542-.6v-.181h12.671l.864,2.631-.261-.04-.221-.221a5.481,5.481,0,0,0-2.309-1.406c-1.125-.462-4.579-.462-7.491-.462h-.381v6.427h4.839a4.548,4.548,0,0,0,2.51-.442,2.793,2.793,0,0,0,1.025-1.225h.221c-.061.723-.081,1.185-.081,1.907,0,.743.02,1.145.081,1.868h-.221a2.867,2.867,0,0,0-1.245-1.185,4.5,4.5,0,0,0-2.29-.381h-4.779l.16,5.341c.081,2.109,1.1,1.948,3.073,1.988,4.88.1,7.29-.963,8.535-2.69l.241-.041Z" fill="#ebf2ed"/>
      <path id="Tracé_297" data-name="Tracé 297" d="M7121.112,5241.035a17.275,17.275,0,0,0-1.3,1.887l-4.538,9.579h-.161l-5.121-10.362a4.755,4.755,0,0,0-.924-1.285,3.1,3.1,0,0,0-.7-.482v-.2a14.652,14.652,0,0,0,1.867.141,14.1,14.1,0,0,0,2.049-.141v.2a.775.775,0,0,0-.583.482c-.261.482.121,1.325.161,1.426l3.956,7.952,3.474-7.591a2.081,2.081,0,0,0,.06-1.546,1.318,1.318,0,0,0-.843-.723v-.2a17.4,17.4,0,0,0,1.767.08,14.756,14.756,0,0,0,1.627-.08v.2A1.925,1.925,0,0,0,7121.112,5241.035Z" fill="#ebf2ed"/>
      <path id="Tracé_298" data-name="Tracé 298" d="M7135.09,5248.164a6.117,6.117,0,0,1-6.1,4.679,6.654,6.654,0,0,1-6.948-6.848,6.42,6.42,0,0,1,6.788-6.346c2.932.08,5.482,1.968,5.863,4.1l.161.823h-10.422l-.04.582c-.342,4.037,1.526,7.049,4.819,7.029a5.808,5.808,0,0,0,5.5-4.3l.08-.3.4.221Zm-6.245-8.133a4.062,4.062,0,0,0-4.338,3.614l-.02.422h8.113v-.3A3.749,3.749,0,0,0,7128.845,5240.031Z" fill="#ebf2ed"/>
      <path id="Tracé_299" data-name="Tracé 299" d="M7148.485,5252.3c-.9,0-1.426.021-2.33.081v-.161a2.027,2.027,0,0,0,.884-.8,6.365,6.365,0,0,0,.261-1.566l-.06-5.362c-.02-2.169-1.245-4.037-3.776-4.137-2.831-.121-4.2,2.791-4.177,5.482l.061,4.017a3.7,3.7,0,0,0,.241,1.626,1.937,1.937,0,0,0,.863.743v.161c-.683-.04-1.1-.06-1.807-.06-.884,0-1.406,0-2.289.06v-.161a1.9,1.9,0,0,0,.823-.763,3.037,3.037,0,0,0,.321-1.606l-.04-7.31a2.52,2.52,0,0,0-.422-1.125,1.7,1.7,0,0,0-.522-.462l.02-.18c.482-.1.783-.161,1.265-.282.362-.1.583-.16.924-.281l.161.081a6.149,6.149,0,0,1,.06.723,14.493,14.493,0,0,0,.121,1.907l.06.261.281-.622a4.648,4.648,0,0,1,4.458-2.812c3.213.161,5.121,1.788,5.221,4.679l.221,5.423a4.7,4.7,0,0,0,.3,1.626,1.994,1.994,0,0,0,.863.743v.161C7149.71,5252.321,7149.248,5252.3,7148.485,5252.3Z" fill="#ebf2ed"/>
      <path id="Tracé_300" data-name="Tracé 300" d="M7156.779,5241.115h-1.807l.12,7.169c.02.924.261,2.771.884,3.314a3.047,3.047,0,0,0,.964.622v.161h-.382c-1.446,0-2.45.181-2.831-.462a3.361,3.361,0,0,1-.422-2.068l.02-8.776-1.767.02v-.3a4.216,4.216,0,0,0,1.807-1.125,5.691,5.691,0,0,0,1.386-2.711l.422.08c-.04.121-.04-.02-.141.563a13.732,13.732,0,0,0-.06,2.831h1.727c.281,0,.683.02.683.281C7157.382,5241.215,7157.06,5241.115,7156.779,5241.115Z" fill="#ebf2ed"/>
    </g>
    <g id="Groupe_24" data-name="Groupe 24">
      <path id="Tracé_301" data-name="Tracé 301" d="M7117.875,5209.247a1.079,1.079,0,0,0,.11.548.64.64,0,0,0,.389.268l-.024.109c-.45-.036-.864-.048-1.229-.048s-.779.012-1.218.048l.025-.109c.815-.341.852-1.132,1.083-2.483l.633-3.749a5.115,5.115,0,0,0,.085-.791c0-.39-.219-.56-.742-.56a4.147,4.147,0,0,0-2.849,1.217l-.133-.024.681-1.437h7.34l.182,1.437-.085.073a2.85,2.85,0,0,0-2.568-1.254c-.791,0-.889.365-1.035,1.448l-.487,3.664A13,13,0,0,0,7117.875,5209.247Z" fill="#ebf2ed"/>
      <path id="Tracé_302" data-name="Tracé 302" d="M7121.624,5210.063c.779-.317.852-1.108,1.071-2.483l.669-4.187a7.875,7.875,0,0,0,.11-1.132c0-.341-.134-.463-.524-.6l.037-.109c.426-.073.937-.171,1.534-.305l-.67,4.407a3.251,3.251,0,0,1,3.007-2.045,1.871,1.871,0,0,1,2.032,2.02,10.383,10.383,0,0,1-.158,1.437l-.073.535a12.2,12.2,0,0,0-.17,1.643c0,.463.134.706.511.816l-.037.109c-.474-.036-.864-.048-1.168-.048s-.694.012-1.156.048l.036-.109c.73-.292.876-1.059,1.071-2.483l.1-.731a11.212,11.212,0,0,0,.133-1.241,1.441,1.441,0,0,0-1.545-1.631,2.474,2.474,0,0,0-1.972,1.168,4.429,4.429,0,0,0-.791,1.875l-.073.584a13.261,13.261,0,0,0-.147,1.643c0,.463.122.706.5.816l-.025.109c-.475-.036-.876-.048-1.18-.048s-.682.012-1.145.048Z" fill="#ebf2ed"/>
      <path id="Tracé_303" data-name="Tracé 303" d="M7135.755,5209.138a3.848,3.848,0,0,1-2.848,1.156,2.725,2.725,0,0,1-2.9-2.775,3.975,3.975,0,0,1,1.643-2.982,4.242,4.242,0,0,1,2.666-.925c1.119,0,1.752.45,1.752,1.12,0,.888-1.326,1.752-3.274,1.752a7.757,7.757,0,0,1-1.461-.146,3.9,3.9,0,0,0-.194,1.205c0,1.57.839,2.459,2.166,2.459a3.263,3.263,0,0,0,2.289-1.108Zm-3.031-2.922c1.412,0,2.337-.779,2.337-1.5,0-.5-.414-.84-1.108-.84a2.838,2.838,0,0,0-2.507,2.167A5.77,5.77,0,0,0,7132.724,5206.216Z" fill="#ebf2ed"/>
    </g>
  </g>
</svg>
