<svg xmlns="http://www.w3.org/2000/svg" width="100.58" height="51.599" viewBox="0 0 100.58 51.599">
  <g id="Groupe_22" data-name="Groupe 22" transform="translate(-77.42 -43.25)">
    <g id="Groupe_20" data-name="Groupe 20">
      <path id="Tracé_276" data-name="Tracé 276" d="M94.913,74.3H84.407c-1.291,0-2.05-.1-3.341-.1-1.418,0-2.228.025-3.646.126V74.1a2.151,2.151,0,0,0,1.418-1.013,5.9,5.9,0,0,0,.38-1.974V58.071a4.277,4.277,0,0,0-.38-1.873,3.975,3.975,0,0,0-.886-1.038v-.228a19.52,19.52,0,0,0,2.734.152,18.533,18.533,0,0,0,2.354-.152v.228a2.4,2.4,0,0,0-.784.81,2.97,2.97,0,0,0-.684,2.025L81.9,71.109c.051,1.923.81,2.531,3.873,2.607,3.6.076,8.1-.557,10.025-3.266l.228.026Z" fill="#172a23"/>
      <path id="Tracé_277" data-name="Tracé 277" d="M111.369,74.3l-.2-.076c-.1-.025-.379-.4-.557-1.215-.126-.582-.228-1.342-.278-1.544l-.076-.2-.43.583a6.183,6.183,0,0,1-5.291,2.86c-2.608.127-6.152-1.316-6.152-5.24V62.425a3,3,0,0,0-.3-1.7,1.457,1.457,0,0,0-.936-.683v-.279c.582-.126.936-.253,1.519-.354a14.289,14.289,0,0,0,1.468-.456l.38.152c-.051.481-.051.759-.076,1.24-.026.3-.026,1.671-.026,1.95l.051,6.531c0,2.608,1.418,5.114,4.455,5.063s5.266-2.076,5.241-6.43V62.425a4.864,4.864,0,0,0-.178-1.822,1.285,1.285,0,0,0-.936-.785v-.279a4.688,4.688,0,0,0,1.468-.227,4.614,4.614,0,0,0,1.215-.431l.456.127c-.051.481-.051.785-.076,1.291-.025.81-.025,1.266,0,2.126l.2,9.19a5.8,5.8,0,0,0,.659,1.848,3.756,3.756,0,0,0,.557.633v.2Z" fill="#172a23"/>
      <path id="Tracé_278" data-name="Tracé 278" d="M127.824,74.2a18.532,18.532,0,0,0-2.051.1v-.2a1.24,1.24,0,0,0,.836-.988c.051-.329-.633-1.24-.734-1.392l-3.519-4.633-2.81,3.469c-.81.987-1.367,2.253-1.19,2.734a1.249,1.249,0,0,0,.785.81v.2c-.836-.05-1.367-.1-2.2-.1-.86,0-1.367.051-2.177.1v-.2a4.091,4.091,0,0,0,1.038-.633,18.915,18.915,0,0,0,1.823-1.747l4.354-5.139-3.316-4.329a17.034,17.034,0,0,0-2.253-2.582,7.423,7.423,0,0,0-.76-.506v-.253a15.89,15.89,0,0,0,2.2.126,14.666,14.666,0,0,0,2.1-.126v.253c-.076.076-.076-.076-.354.455-.431.836.784,2.152.86,2.279l2.684,3.316,2.734-3.266c.1-.126,1.164-1.468.81-2.354-.228-.557-.279-.354-.329-.43v-.253c.557.025.936.05,1.519.05.86,0,1.367,0,2.2-.05v.253a9.752,9.752,0,0,0-1.519,1.088c-.658.608-1.493,1.519-1.645,1.7l-3.291,3.747,5.063,6.025a15.25,15.25,0,0,0,1.417,1.57,13.356,13.356,0,0,0,1.089.81v.2A24.924,24.924,0,0,0,127.824,74.2Z" fill="#172a23"/>
      <path id="Tracé_279" data-name="Tracé 279" d="M146.609,74.3l-.2-.076c-.1-.025-.38-.4-.557-1.215-.126-.582-.228-1.342-.278-1.544l-.076-.2-.431.583a6.183,6.183,0,0,1-5.291,2.86c-2.607.127-6.151-1.316-6.151-5.24V62.425a3,3,0,0,0-.3-1.7,1.458,1.458,0,0,0-.937-.683v-.279c.583-.126.937-.253,1.519-.354a14.307,14.307,0,0,0,1.469-.456l.379.152c-.05.481-.05.759-.076,1.24-.025.3-.025,1.671-.025,1.95l.051,6.531c0,2.608,1.417,5.114,4.455,5.063s5.266-2.076,5.24-6.43V62.425a4.867,4.867,0,0,0-.177-1.822,1.286,1.286,0,0,0-.937-.785v-.279a4.69,4.69,0,0,0,1.469-.227,4.614,4.614,0,0,0,1.215-.431l.456.127c-.051.481-.051.785-.076,1.291-.026.81-.026,1.266,0,2.126l.2,9.19a5.824,5.824,0,0,0,.658,1.848,3.847,3.847,0,0,0,.557.633v.2Z" fill="#172a23"/>
      <path id="Tracé_280" data-name="Tracé 280" d="M158.558,61.21l-.279-.228a1.915,1.915,0,0,0-1.671-.379c-1.949.126-2.784,3.949-2.784,5.189l.1,5.317a3.272,3.272,0,0,0,.481,2.05,2.45,2.45,0,0,0,1.215.937v.2a25.985,25.985,0,0,0-2.785-.126,23.855,23.855,0,0,0-2.683.126v-.2a2.642,2.642,0,0,0,1.038-1.013,4.957,4.957,0,0,0,.38-1.974l.1-9.342a1.878,1.878,0,0,0-.532-1.493,1.591,1.591,0,0,0-.785-.481v-.33c.608-.1.962-.227,1.545-.354.557-.152.886-.3,1.443-.481l.329.253a2.389,2.389,0,0,0-.1.709,16.556,16.556,0,0,0-.025,2.962l.279.076.2-.4a7.624,7.624,0,0,1,2.456-2.962,5.222,5.222,0,0,1,2.911-.76Z" fill="#172a23"/>
      <path id="Tracé_281" data-name="Tracé 281" d="M177.139,59.919a15.5,15.5,0,0,0-2.126,3.494L171.9,69.767l-2.683,5.316a9.418,9.418,0,0,1-4.3,4.683,5.448,5.448,0,0,1-2.607.557l-.38-.025.962-2.886.278.076a2.186,2.186,0,0,0,1.57.861c2.076-.026,3.544-2.481,3.645-3.671l.076-1.038a33.168,33.168,0,0,0-1.569-3.62c-.38-.734-2.1-4.607-3.722-7.316a27.223,27.223,0,0,0-1.544-2.532,4.016,4.016,0,0,0-1.266-1.012v-.253c1.013.075,1.646.075,2.658.075a22.354,22.354,0,0,0,2.253-.075l.051.253c-.228.152-.43.152-.582.531-.329.734.177,2.127.658,3.013l4.785,8.987,4.4-9.012c.254-.557.785-1.95.228-2.836a1.193,1.193,0,0,0-.911-.683v-.253a18.5,18.5,0,0,0,2.05.075A18.748,18.748,0,0,0,178,58.907v.253A3.992,3.992,0,0,0,177.139,59.919Z" fill="#172a23"/>
      <path id="Tracé_282" data-name="Tracé 282" d="M109.533,94.381h-8.9c-.964,0-1.526-.081-2.49-.081-1.144,0-1.827,0-2.952.081V94.22a1.9,1.9,0,0,0,.984-.743c.4-.442.382-2.129.382-2.329V80.866a2.523,2.523,0,0,0-.422-1.065,2.091,2.091,0,0,0-.542-.6v-.181h12.671l.864,2.631-.261-.04-.221-.221a5.488,5.488,0,0,0-2.309-1.406c-1.125-.462-4.579-.462-7.491-.462h-.381v6.427h4.839a4.547,4.547,0,0,0,2.51-.442,2.8,2.8,0,0,0,1.025-1.225h.221c-.061.723-.081,1.185-.081,1.907,0,.743.02,1.145.081,1.868h-.221A2.868,2.868,0,0,0,105.6,86.87a4.506,4.506,0,0,0-2.29-.381H98.528l.16,5.341c.081,2.109,1.1,1.948,3.073,1.988,4.88.1,7.29-.963,8.535-2.69l.241-.041Z" fill="#172a23"/>
      <path id="Tracé_283" data-name="Tracé 283" d="M124.112,83.035a17.232,17.232,0,0,0-1.305,1.887L118.269,94.5h-.161l-5.121-10.362a4.768,4.768,0,0,0-.924-1.285,3.1,3.1,0,0,0-.7-.482v-.2a14.663,14.663,0,0,0,1.867.141,14.122,14.122,0,0,0,2.049-.141v.2a.775.775,0,0,0-.583.482c-.261.482.121,1.325.161,1.426l3.956,7.952,3.474-7.591a2.078,2.078,0,0,0,.06-1.546,1.317,1.317,0,0,0-.843-.723v-.2a17.409,17.409,0,0,0,1.767.08,14.77,14.77,0,0,0,1.627-.08v.2A1.921,1.921,0,0,0,124.112,83.035Z" fill="#172a23"/>
      <path id="Tracé_284" data-name="Tracé 284" d="M138.09,90.164a6.117,6.117,0,0,1-6.1,4.679A6.655,6.655,0,0,1,125.037,88a6.42,6.42,0,0,1,6.788-6.346c2.932.08,5.482,1.968,5.863,4.1l.161.823H127.427l-.04.582c-.342,4.037,1.526,7.049,4.819,7.029a5.808,5.808,0,0,0,5.5-4.3l.08-.3.4.221Zm-6.245-8.133a4.061,4.061,0,0,0-4.338,3.614l-.02.422H135.6v-.3A3.749,3.749,0,0,0,131.845,82.031Z" fill="#172a23"/>
      <path id="Tracé_285" data-name="Tracé 285" d="M151.485,94.3c-.9,0-1.426.021-2.33.081V94.22a2.024,2.024,0,0,0,.884-.8,6.368,6.368,0,0,0,.261-1.566l-.06-5.362c-.02-2.169-1.245-4.037-3.776-4.137-2.831-.121-4.2,2.791-4.177,5.482l.061,4.017a3.7,3.7,0,0,0,.241,1.626,1.934,1.934,0,0,0,.863.743v.161c-.683-.04-1.1-.06-1.807-.06-.884,0-1.406,0-2.289.06V94.22a1.9,1.9,0,0,0,.823-.763,3.035,3.035,0,0,0,.321-1.606l-.04-7.31a2.519,2.519,0,0,0-.422-1.125,1.706,1.706,0,0,0-.522-.462l.02-.18c.482-.1.783-.161,1.265-.282.362-.1.583-.16.924-.281l.161.081a5.913,5.913,0,0,1,.06.723,14.5,14.5,0,0,0,.121,1.907l.06.261.281-.622a4.649,4.649,0,0,1,4.458-2.812c3.213.161,5.121,1.788,5.221,4.679l.221,5.423a4.7,4.7,0,0,0,.3,1.626,1.991,1.991,0,0,0,.863.743v.161C152.71,94.321,152.248,94.3,151.485,94.3Z" fill="#172a23"/>
      <path id="Tracé_286" data-name="Tracé 286" d="M159.779,83.115h-1.807l.12,7.169c.02.924.261,2.771.884,3.314a3.041,3.041,0,0,0,.964.622v.161h-.382c-1.446,0-2.45.181-2.831-.462a3.362,3.362,0,0,1-.422-2.068l.02-8.776-1.767.02v-.3a4.216,4.216,0,0,0,1.807-1.125,5.69,5.69,0,0,0,1.386-2.711l.422.08c-.04.121-.04-.02-.141.563a13.744,13.744,0,0,0-.06,2.831H159.7c.281,0,.683.02.683.281C160.382,83.215,160.06,83.115,159.779,83.115Z" fill="#172a23"/>
    </g>
    <g id="Groupe_21" data-name="Groupe 21">
      <path id="Tracé_287" data-name="Tracé 287" d="M120.875,51.247a1.079,1.079,0,0,0,.11.548.639.639,0,0,0,.389.268l-.024.109c-.45-.036-.864-.048-1.229-.048s-.779.012-1.218.048l.025-.109c.815-.341.852-1.132,1.083-2.483l.633-3.749a5.082,5.082,0,0,0,.085-.791c0-.39-.219-.56-.742-.56a4.148,4.148,0,0,0-2.849,1.217L117,45.673l.681-1.437h7.34l.182,1.437-.085.073a2.851,2.851,0,0,0-2.568-1.254c-.791,0-.889.365-1.035,1.448l-.487,3.664A13.021,13.021,0,0,0,120.875,51.247Z" fill="#172a23"/>
      <path id="Tracé_288" data-name="Tracé 288" d="M124.624,52.063c.779-.317.852-1.108,1.071-2.483l.669-4.187a7.925,7.925,0,0,0,.11-1.132c0-.341-.134-.463-.524-.6l.037-.109c.426-.073.937-.171,1.534-.305l-.67,4.407a3.251,3.251,0,0,1,3.007-2.045,1.87,1.87,0,0,1,2.032,2.02,10.358,10.358,0,0,1-.158,1.437l-.073.535a12.222,12.222,0,0,0-.17,1.643c0,.463.134.706.511.816l-.037.109c-.474-.036-.864-.048-1.168-.048s-.694.012-1.156.048l.036-.109c.73-.292.876-1.059,1.071-2.483l.1-.731a11.159,11.159,0,0,0,.133-1.241,1.441,1.441,0,0,0-1.545-1.631,2.473,2.473,0,0,0-1.972,1.168,4.428,4.428,0,0,0-.791,1.875l-.073.584a13.278,13.278,0,0,0-.147,1.643c0,.463.122.706.5.816l-.025.109c-.475-.036-.876-.048-1.18-.048s-.682.012-1.145.048Z" fill="#172a23"/>
      <path id="Tracé_289" data-name="Tracé 289" d="M138.755,51.138a3.848,3.848,0,0,1-2.848,1.156,2.724,2.724,0,0,1-2.9-2.775,3.974,3.974,0,0,1,1.643-2.982,4.242,4.242,0,0,1,2.666-.925c1.119,0,1.752.45,1.752,1.12,0,.888-1.326,1.752-3.274,1.752a7.767,7.767,0,0,1-1.461-.146,3.89,3.89,0,0,0-.194,1.2c0,1.57.839,2.459,2.166,2.459a3.262,3.262,0,0,0,2.289-1.108Zm-3.031-2.922c1.412,0,2.337-.779,2.337-1.5,0-.5-.414-.84-1.108-.84a2.838,2.838,0,0,0-2.507,2.167A5.759,5.759,0,0,0,135.724,48.216Z" fill="#172a23"/>
    </g>
  </g>
</svg>
