<svg xmlns="http://www.w3.org/2000/svg" width="865.891" height="446.935" viewBox="0 0 865.891 446.935">
  <g id="Groupe_19" data-name="Groupe 19" transform="translate(-2565.765 -301.082)">
    <g id="Groupe_17" data-name="Groupe 17">
      <path id="Tracé_262" data-name="Tracé 262" d="M2709.488,556.174h-86.317c-10.608,0-16.848-.832-27.455-.832-11.648,0-18.3.207-29.951,1.039V554.51a17.668,17.668,0,0,0,11.647-8.321c2.08-2.912,3.12-14.142,3.12-16.222V422.85c0-2.5-.208-10.192-3.12-15.391a32.776,32.776,0,0,0-7.279-8.527v-1.873a160.718,160.718,0,0,0,22.463,1.248c7.279-.207,11.855-.207,19.343-1.248v1.873c-1.041.623-2.912,1.663-6.448,6.655-3.743,5.407-5.616,8.735-5.616,16.64l2.705,107.74c.416,15.806,6.655,20.8,31.822,21.423,29.536.624,66.558-4.577,82.366-26.831l1.871.208Z" fill="#ebf2ed"/>
      <path id="Tracé_263" data-name="Tracé 263" d="M2852.592,556.174l-1.664-.625c-.832-.207-3.12-3.327-4.576-9.983-1.04-4.785-1.873-11.024-2.289-12.688l-.624-1.663L2839.9,536c-4.576,6.24-15.183,22.463-43.47,23.5-21.424,1.04-50.543-10.815-50.543-43.054V458.625c0-8.527-1.248-12.271-2.5-13.936-3.12-3.952-4.16-4.576-7.7-5.615v-2.289c4.784-1.039,7.7-2.08,12.481-2.912,4.783-1.039,7.487-2.287,12.062-3.743l3.12,1.248c-.416,3.952-.416,6.239-.624,10.191-.208,2.5-.208,13.728-.208,16.016l.416,53.662c0,21.423,11.648,42.015,36.607,41.6s43.262-17.056,43.054-52.83V458.625c0-5.824.208-11.439-1.455-14.976a10.571,10.571,0,0,0-7.7-6.448v-2.287c4.991.207,7.487-.832,12.064-1.872,3.951-1.04,6.656-1.664,9.983-3.536l3.744,1.04c-.416,3.952-.416,6.448-.624,10.607-.208,6.656-.208,10.4,0,17.472l1.664,75.5c0,2.5,3.328,12.271,5.408,15.184a30.693,30.693,0,0,0,4.576,5.2v1.664Z" fill="#ebf2ed"/>
      <path id="Tracé_264" data-name="Tracé 264" d="M2995.693,555.342a152.034,152.034,0,0,0-16.847.832V554.51a10.171,10.171,0,0,0,6.863-8.113c.416-2.7-5.2-10.191-6.031-11.439L2950.767,496.9l-23.087,28.495c-6.657,8.111-11.233,18.511-9.776,22.463,1.039,3.952,4.159,5.615,6.448,6.656v1.664c-6.864-.416-11.232-.832-18.1-.832-7.071,0-11.232.416-17.887.832V554.51c2.5-1.457,3.744-1.248,8.527-5.2a155.222,155.222,0,0,0,14.976-14.352l35.774-42.222L2920.4,457.169c-1.041-1.456-10.192-14.144-18.511-21.216a62.006,62.006,0,0,0-6.241-4.159v-2.08a130.133,130.133,0,0,0,18.1,1.04,120.217,120.217,0,0,0,17.264-1.04v2.08c-.625.624-.625-.624-2.912,3.743-3.536,6.864,6.447,17.68,7.071,18.72l22.048,27.247,22.463-26.831c.832-1.04,9.567-12.064,6.656-19.343-1.873-4.576-2.289-2.912-2.705-3.536v-2.08c4.576.208,7.7.416,12.48.416,7.072,0,11.232,0,18.1-.416v2.08a80.319,80.319,0,0,0-12.479,8.943c-5.409,4.992-12.272,12.48-13.52,13.936l-27.039,30.783,41.6,49.5c4.16,5.2,10.4,12.063,11.647,12.9a108.983,108.983,0,0,0,8.944,6.656v1.664A204.9,204.9,0,0,0,2995.693,555.342Z" fill="#ebf2ed"/>
      <path id="Tracé_265" data-name="Tracé 265" d="M3157.932,556.174l-1.664-.625c-.832-.207-3.121-3.327-4.577-9.983-1.039-4.785-1.871-11.024-2.287-12.688l-.624-1.663L3145.244,536c-4.576,6.24-15.183,22.463-43.471,23.5-21.422,1.04-50.542-10.815-50.542-43.054V458.625c0-8.527-1.248-12.271-2.5-13.936-3.12-3.952-4.16-4.576-7.7-5.615v-2.289c4.783-1.039,7.7-2.08,12.48-2.912,4.783-1.039,7.487-2.287,12.063-3.743l3.12,1.248c-.416,3.952-.416,6.239-.624,10.191-.208,2.5-.208,13.728-.208,16.016l.416,53.662c0,21.423,11.648,42.015,36.607,41.6s43.262-17.056,43.054-52.83V458.625c0-5.824.208-11.439-1.456-14.976a10.568,10.568,0,0,0-7.7-6.448v-2.287c4.992.207,7.488-.832,12.063-1.872,3.953-1.04,6.657-1.664,9.985-3.536l3.743,1.04c-.415,3.952-.415,6.448-.623,10.607-.208,6.656-.208,10.4,0,17.472l1.663,75.5c0,2.5,3.328,12.271,5.408,15.184a30.79,30.79,0,0,0,4.576,5.2v1.664Z" fill="#ebf2ed"/>
      <path id="Tracé_266" data-name="Tracé 266" d="M3264.011,448.641l-2.287-1.871c-3.745-2.913-6.033-3.745-13.728-3.121-16.016,1.04-22.88,32.447-22.88,42.639l.832,43.679c.208,8.111.832,12.687,3.952,16.846,2.913,3.953,6.448,6.656,9.984,7.7v1.664A212.934,212.934,0,0,0,3217,555.133a195.54,195.54,0,0,0-22.047,1.041V554.51c3.327-1.664,6.031-4.368,8.527-8.321,2.7-4.367,3.12-14.142,3.12-16.222l.833-76.75c0-6.031-1.457-9.36-4.369-12.272a13.116,13.116,0,0,0-6.448-3.951v-2.7c4.992-.832,7.9-1.871,12.689-2.911,4.575-1.248,7.279-2.5,11.855-3.952l2.7,2.08c-.208,1.04-.208-.416-.832,5.824a136.085,136.085,0,0,0-.208,24.335l2.288.624,1.664-3.328c5.824-10.815,13.1-20.383,20.176-24.335,7.695-4.368,14.56-6.448,23.919-6.24Z" fill="#ebf2ed"/>
      <path id="Tracé_267" data-name="Tracé 267" d="M3424.584,438.033c-8.319,8.737-16.639,26.832-17.471,28.7l-25.583,52.207-22.048,43.678c-3.951,7.9-14.143,29.119-35.358,38.479-7.7,3.536-14.976,4.992-21.423,4.576l-3.12-.208,7.9-23.712,2.288.625c3.329,3.535,7.281,7.071,12.9,7.071,17.056-.208,29.119-20.384,29.951-30.159l.624-8.527c-.832-2.288-6.864-18.512-12.9-29.744-3.12-6.032-17.264-37.854-30.576-60.11a225.315,225.315,0,0,0-12.687-20.8c-3.536-4.783-9.359-7.7-10.4-8.319v-2.08c8.319.624,13.519.624,21.838.624a181.426,181.426,0,0,0,18.512-.624l.416,2.08c-1.872,1.248-3.536,1.248-4.784,4.368-2.7,6.031,1.456,17.471,5.408,24.75l39.311,73.838,36.19-74.045c2.08-4.576,6.448-16.016,1.872-23.295-3.536-5.616-6.448-5.2-7.488-5.616v-2.08a150.2,150.2,0,0,0,16.848.624,152.036,152.036,0,0,0,16.847-.624v2.08A32.68,32.68,0,0,0,3424.584,438.033Z" fill="#ebf2ed"/>
      <path id="Tracé_268" data-name="Tracé 268" d="M2836.82,744.174h-73.091c-7.92,0-12.54-.66-20.459-.66-9.405,0-15.014,0-24.254.66v-1.32a15.669,15.669,0,0,0,8.085-6.1c3.3-3.63,3.134-17.489,3.134-19.139V633.134c0-1.816-1.485-5.776-3.464-8.745a17.131,17.131,0,0,0-4.456-4.951v-1.484h104.111l7.095,21.614-2.145-.33-1.814-1.815c-7.425-7.425-11.22-8.249-18.975-11.549-9.239-3.8-37.618-3.8-61.542-3.8h-3.135v52.8h39.763c7.92,0,15.015,0,20.624-3.63a22.925,22.925,0,0,0,8.415-10.064h1.815c-.5,5.939-.66,9.734-.66,15.673,0,6.1.164,9.4.66,15.345h-1.815a23.476,23.476,0,0,0-10.23-9.734c-4.125-2.311-9.074-3.136-18.809-3.136H2746.4l1.321,43.889c.66,17.324,9.074,16,25.244,16.334,40.094.825,59.892-7.919,70.122-22.109l1.979-.33Z" fill="#ebf2ed"/>
      <path id="Tracé_269" data-name="Tracé 269" d="M2962.881,650.952c-2.805,3.3-9.735,13.365-10.725,15.51l-37.288,78.7h-1.32l-42.073-85.137c-.661-1.32-3.8-7.259-7.59-10.559a25.428,25.428,0,0,0-5.775-3.96v-1.651a119.9,119.9,0,0,0,15.345,1.156,115.246,115.246,0,0,0,16.829-1.156v1.651c-.825.165-2.97.495-4.785,3.96-2.145,3.96.99,10.889,1.32,11.715l32.5,65.337,28.545-62.368c1.98-4.455,1.815-10.229.494-12.7a10.845,10.845,0,0,0-6.929-5.939v-1.651a142.2,142.2,0,0,0,14.519.661,120.568,120.568,0,0,0,13.365-.661v1.651C2968.656,646,2966.511,646.333,2962.881,650.952Z" fill="#ebf2ed"/>
      <path id="Tracé_270" data-name="Tracé 270" d="M3083.992,709.525c-6.1,21.78-22.109,37.288-50.158,38.444-27.059,1.155-56.592-18.48-57.088-56.263-.33-27.719,23.265-53.293,55.769-52.138,24.089.661,45.043,16.169,48.177,33.659l1.321,6.764h-85.632l-.33,4.785c-2.8,33.163,12.539,57.912,39.6,57.747,19.3-.164,39.928-13.694,45.208-35.308l.661-2.475,3.3,1.816ZM3032.68,642.7c-29.865-.99-35.475,25.739-35.639,29.7l-.166,3.465h66.658v-2.474C3064.193,658.707,3051.653,643.2,3032.68,642.7Z" fill="#ebf2ed"/>
      <path id="Tracé_271" data-name="Tracé 271" d="M3200.314,743.514c-7.424,0-11.713.165-19.138.66v-1.32a16.614,16.614,0,0,0,7.26-6.6c1.154-1.98,2.144-11.22,2.144-12.869l-.5-44.054c-.165-17.819-10.23-33.163-31.019-33.988-23.263-.99-34.483,22.934-34.318,45.043l.495,33c.165,5.279.165,10.559,1.98,13.364a15.892,15.892,0,0,0,7.094,6.1v1.32c-5.609-.33-9.074-.495-14.849-.495-7.26,0-11.55,0-18.809.495v-1.32a15.559,15.559,0,0,0,6.765-6.27c2.97-4.29,2.639-11.55,2.639-13.2l-.33-60.058a20.7,20.7,0,0,0-3.464-9.239,14.043,14.043,0,0,0-4.29-3.795l.165-1.485c3.96-.826,6.434-1.321,10.394-2.31,2.97-.825,4.785-1.32,7.59-2.31l1.32.66a48.623,48.623,0,0,1,.5,5.94c.329,5.94.164,12.539.99,15.674l.495,2.144,2.309-5.114c3.136-7.59,14.85-24.254,36.629-23.1,26.4,1.32,42.073,14.684,42.9,38.444l1.814,44.548c.165,5.279,1.485,12.044,2.476,13.364,2.474,3.135,3.959,4.785,7.094,6.1v1.32C3210.379,743.679,3206.584,743.514,3200.314,743.514Z" fill="#ebf2ed"/>
      <path id="Tracé_272" data-name="Tracé 272" d="M3274.732,651.612h-14.849l.99,58.9c.165,7.588,2.145,22.768,7.26,27.223a25.111,25.111,0,0,0,7.919,5.115v1.32h-3.135c-11.879,0-20.129,1.485-23.264-3.795-1.155-1.98-3.465-5.114-3.465-16.994l.166-72.1-14.52.165v-2.474c7.26-2.64,10.064-4.62,14.85-9.24,6.764-6.764,10.559-17.324,11.384-22.274l3.465.66c-.33.99-.33-.165-1.155,4.619-.495,3.136-1.485,16.005-.495,23.265h14.189c2.31,0,5.61.165,5.61,2.31C3279.682,652.438,3277.042,651.612,3274.732,651.612Z" fill="#ebf2ed"/>
    </g>
    <g id="Groupe_18" data-name="Groupe 18">
      <path id="Tracé_273" data-name="Tracé 273" d="M2942.553,366.785a8.842,8.842,0,0,0,.9,4.5,5.27,5.27,0,0,0,3.2,2.2l-.2.9c-3.7-.3-7.1-.4-10.1-.4s-6.4.1-10,.4l.2-.9c6.7-2.8,7-9.3,8.9-20.4l5.2-30.8a41.761,41.761,0,0,0,.7-6.5c0-3.2-1.8-4.6-6.1-4.6-8.6,0-15.8,3.3-23.4,10l-1.1-.2,5.6-11.8h60.3l1.5,11.8-.7.6c-4.9-7.1-11.6-10.3-21.1-10.3-6.5,0-7.3,3-8.5,11.9l-4,30.1A106.2,106.2,0,0,0,2942.553,366.785Z" fill="#ebf2ed"/>
      <path id="Tracé_274" data-name="Tracé 274" d="M2973.352,373.486c6.4-2.6,7-9.1,8.8-20.4l5.5-34.4a64.681,64.681,0,0,0,.9-9.3c0-2.8-1.1-3.8-4.3-4.9l.3-.9c3.5-.6,7.7-1.4,12.6-2.5l-5.5,36.2c5.5-11.1,13.9-16.8,24.7-16.8,10.3,0,16.7,6.2,16.7,16.6a85.781,85.781,0,0,1-1.3,11.8l-.6,4.4a100.991,100.991,0,0,0-1.4,13.5c0,3.8,1.1,5.8,4.2,6.7l-.3.9c-3.9-.3-7.1-.4-9.6-.4s-5.7.1-9.5.4l.3-.9c6-2.4,7.2-8.7,8.8-20.4l.8-6a92.044,92.044,0,0,0,1.1-10.2c0-8.7-4.7-13.4-12.7-13.4q-9,0-16.2,9.6a36.421,36.421,0,0,0-6.5,15.4l-.6,4.8a108.968,108.968,0,0,0-1.2,13.5c0,3.8,1,5.8,4.1,6.7l-.2.9c-3.9-.3-7.2-.4-9.7-.4s-5.6.1-9.4.4Z" fill="#ebf2ed"/>
      <path id="Tracé_275" data-name="Tracé 275" d="M3089.453,365.885c-6.9,6.6-14.1,9.5-23.4,9.5-14.3,0-23.8-9.8-23.8-22.8,0-8.5,4.8-17.5,13.5-24.5a34.885,34.885,0,0,1,21.9-7.6c9.2,0,14.4,3.7,14.4,9.2,0,7.3-10.9,14.4-26.9,14.4a64.216,64.216,0,0,1-12-1.2,31.984,31.984,0,0,0-1.6,9.9c0,12.9,6.9,20.2,17.8,20.2,6.4,0,12.9-3.1,18.8-9.1Zm-24.9-24c11.6,0,19.2-6.4,19.2-12.3,0-4.1-3.4-6.9-9.1-6.9-8.6,0-16.5,6.4-20.6,17.8A47.515,47.515,0,0,0,3064.553,341.884Z" fill="#ebf2ed"/>
    </g>
  </g>
</svg>
